<svg xmlns="http://www.w3.org/2000/svg" viewBox="0 0 249.5 70.87"><defs><style>.cls-1{fill:#e40000;}.cls-2{fill:#323232;}</style></defs><title>Asset 1</title><g id="Layer_2" data-name="Layer 2"><g id="Qantas_Assure" data-name="Qantas Assure"><path class="cls-1" d="M0,15.45C0,6.29,5.46.56,13.88,0V6.38C9.53,6.85,7,10.55,7,15.27v32.1c0,4.72,2.5,8.42,6.85,8.88v6.38C5.46,62.08,0,56.34,0,47.18ZM21.65,70.87l-5.46-8.23V56.25c4.35-.55,6.85-4.16,6.85-8.88V15.27c0-4.72-2.5-8.33-6.85-8.88V0c8.42.56,13.88,6.38,13.88,15.45V47.18c0,6.38-2.68,11.19-7.22,13.6L29.6,70.87Z"/><path class="cls-2" d="M140.09,27.27v-.63a4.87,4.87,0,0,0-5.23-5c-3.2,0-5.26,2.12-5.26,4.75s1.63,3.95,3.75,4.95l2.12,1c1.57.74,2.89,1.37,2.89,3.55a3.25,3.25,0,0,1-3.52,3.29c-2.23,0-3.49-1.34-3.49-3.06v-.86h-2.12V36c0,3,2.37,5,5.63,5,3.46,0,5.58-2.23,5.58-5.35s-2.2-4.35-4.32-5.35l-2.12-1c-1.32-.63-2.34-1.26-2.34-3.06a2.85,2.85,0,0,1,3.15-2.77A3,3,0,0,1,138,26.53v.74ZM122.87,40.71h2.26L119.7,21.92h-2.23l-5.38,18.79h2.14l1.14-4.32h6.32Zm-1.72-6.21h-5.23l2.6-9.67ZM98.53,23.87h4.4V40.71h2.17V23.87h4.43V21.92h-11Zm-5.46-1.94h-2V36l-7-14H82.12V40.71h2V26.44l7.15,14.27h1.8ZM74.31,40.71h2.26L71.14,21.92H68.9L63.53,40.71h2.15l1.14-4.32h6.32Zm-1.72-6.21H67.36L70,24.84ZM49.43,27.44c0-2.2,1.29-3.86,3.49-3.86s3.49,1.66,3.49,3.86v7.75c0,2.2-1.26,3.86-3.49,3.86s-3.49-1.66-3.49-3.86Zm8.89,16.79-2.46-3.92a5.57,5.57,0,0,0,2.72-5.18V27.5c0-3.6-2.32-5.86-5.66-5.86s-5.66,2.26-5.66,5.86v7.64c0,3.6,2.29,5.86,5.66,5.86a3.62,3.62,0,0,0,.8-.09l2,3.32ZM162.88,36.4h-6.32l-1.14,4.32h-2.14l5.38-18.79h2.23l5.43,18.79h-2.26Zm-3.17-11.55-2.6,9.67h5.23Zm19.5,2.43v-.74A3,3,0,0,0,176,23.47a2.85,2.85,0,0,0-3.15,2.78c0,1.8,1,2.43,2.34,3.06l2.12,1c2.12,1,4.32,2.09,4.32,5.35S179.5,41,176,41c-3.26,0-5.63-2-5.63-5v-.74h2.12v.86c0,1.72,1.26,3.06,3.49,3.06a3.25,3.25,0,0,0,3.52-3.29c0-2.17-1.31-2.8-2.89-3.54l-2.12-1c-2.12-1-3.75-2.32-3.75-4.95s2.06-4.75,5.26-4.75a4.87,4.87,0,0,1,5.23,5v.63Zm16.47,0v-.74a3,3,0,0,0-3.23-3.06,2.85,2.85,0,0,0-3.15,2.78c0,1.8,1,2.43,2.34,3.06l2.12,1c2.12,1,4.32,2.09,4.32,5.35S196,41,192.51,41c-3.26,0-5.63-2-5.63-5v-.74H189v.86c0,1.72,1.26,3.06,3.49,3.06A3.25,3.25,0,0,0,196,35.88c0-2.17-1.32-2.8-2.89-3.54l-2.12-1c-2.12-1-3.75-2.32-3.75-4.95s2.06-4.75,5.26-4.75a4.87,4.87,0,0,1,5.23,5v.63Zm19.53-5.35V35.14c0,3.6-2.26,5.86-5.52,5.86s-5.55-2.26-5.55-5.86V21.92h2.17V35.19c0,2.2,1.23,3.86,3.37,3.86S213,37.39,213,35.19V21.92Zm6.95,18.79V21.92h4.89c3.6,0,6.21,2.2,6.21,5.6a5.43,5.43,0,0,1-3.12,5.23l3.09,7.95h-2.37L228,33.25a8.38,8.38,0,0,1-1,.06h-2.66v7.41Zm2.17-16.87v7.58h2.6A3.73,3.73,0,0,0,231,27.53c0-2.23-1.57-3.69-4.09-3.69Zm17.33,8.24v6.69h7.83v1.94h-10V21.92h9.78v1.94h-7.61v6.29h7v1.92Z"/></g><g id="Layer_1-2" data-name="Layer 1"><path class="cls-2" d="M125,62.63h-1.28V51.56H125Z"/><path class="cls-2" d="M127.73,62.63V54.39h.94l.19,1a2.63,2.63,0,0,1,2.26-1.15,2.7,2.7,0,0,1,2.83,3v5.4h-1.23V57.22a1.75,1.75,0,0,0-1.82-1.91,1.89,1.89,0,0,0-1.94,2v5.28Z"/><path class="cls-2" d="M142.51,59.78v.15a2.79,2.79,0,0,1-3.09,2.87,3,3,0,0,1-3.14-3.2V57.42a3,3,0,0,1,3.14-3.2,2.79,2.79,0,0,1,3.09,2.85v.1h-1.2V57a1.69,1.69,0,0,0-1.89-1.67,1.86,1.86,0,0,0-1.91,2V59.7a1.86,1.86,0,0,0,1.91,2,1.67,1.67,0,0,0,1.89-1.7v-.25Z"/><path class="cls-2" d="M150.91,59.6a3.15,3.15,0,1,1-6.29,0V57.42a3.15,3.15,0,1,1,6.29,0Zm-5.06.1a1.91,1.91,0,1,0,3.81,0V57.34a1.91,1.91,0,1,0-3.81,0Z"/><path class="cls-2" d="M153.31,62.63V54.39h.94l.17,1a2.59,2.59,0,0,1,2.23-1.15,2.52,2.52,0,0,1,2.48,1.48,2.57,2.57,0,0,1,2.41-1.48,2.69,2.69,0,0,1,2.8,3v5.4h-1.25V57.22a1.73,1.73,0,0,0-1.77-1.91,1.86,1.86,0,0,0-1.89,1.94v5.38H158.2V57.22a1.73,1.73,0,0,0-1.77-1.91,1.86,1.86,0,0,0-1.89,2v5.35Z"/><path class="cls-2" d="M172.89,59.88V60a2.75,2.75,0,0,1-3.05,2.8,2.91,2.91,0,0,1-3.14-3.07V57.42a3.1,3.1,0,1,1,6.19,0v1.25h-5v1.18a1.83,1.83,0,0,0,1.92,1.94,1.69,1.69,0,0,0,1.89-1.72v-.19Zm-5-2.17h3.81V57.3a1.91,1.91,0,1,0-3.81,0Z"/><path class="cls-2" d="M179.38,51.56h3.39a3.56,3.56,0,1,1,0,7.12h-2.11v4h-1.28Zm1.28,1.13v4.86h2a2.32,2.32,0,0,0,2.51-2.44,2.29,2.29,0,0,0-2.51-2.41Z"/><path class="cls-2" d="M188.76,62.63V54.39h.94l.2,1a2.51,2.51,0,0,1,2.19-1.21,3.35,3.35,0,0,1,.41,0v1.18a3.78,3.78,0,0,0-.51-.05,1.93,1.93,0,0,0-2,2.06v5.19Z"/><path class="cls-2" d="M200.42,59.6a3.15,3.15,0,1,1-6.29,0V57.42a3.15,3.15,0,1,1,6.29,0Zm-5.06.1a1.91,1.91,0,1,0,3.81,0V57.34a1.91,1.91,0,1,0-3.81,0Z"/><path class="cls-2" d="M202.13,54.44h1.59V52.2H205v2.24h1.58v1H205v7.15h-1.25V55.48h-1.59Z"/><path class="cls-2" d="M214.46,59.88V60a2.76,2.76,0,0,1-3.05,2.8,2.91,2.91,0,0,1-3.14-3.07V57.42a3.1,3.1,0,1,1,6.19,0v1.25h-5v1.18a1.83,1.83,0,0,0,1.92,1.94,1.69,1.69,0,0,0,1.89-1.72v-.19Zm-5-2.17h3.81V57.3a1.91,1.91,0,1,0-3.81,0Z"/><path class="cls-2" d="M222.8,59.78v.15a2.79,2.79,0,0,1-3.08,2.87,3,3,0,0,1-3.14-3.2V57.42a3,3,0,0,1,3.14-3.2,2.79,2.79,0,0,1,3.08,2.85v.1h-1.2V57a1.69,1.69,0,0,0-1.89-1.67,1.86,1.86,0,0,0-1.91,2V59.7a1.86,1.86,0,0,0,1.91,2,1.67,1.67,0,0,0,1.89-1.7v-.25Z"/><path class="cls-2" d="M224.52,54.44h1.59V52.2h1.25v2.24h1.58v1h-1.58v7.15h-1.25V55.48h-1.59Z"/><path class="cls-2" d="M231.61,51.25a.8.8,0,1,1-.81.81A.8.8,0,0,1,231.61,51.25Zm.61,3.14v8.25H231V54.39Z"/><path class="cls-2" d="M240.86,59.6a3.15,3.15,0,1,1-6.29,0V57.42a3.15,3.15,0,1,1,6.29,0Zm-5.06.1a1.91,1.91,0,1,0,3.81,0V57.34a1.91,1.91,0,1,0-3.81,0Z"/><path class="cls-2" d="M243.26,62.63V54.39h.94l.19,1a2.63,2.63,0,0,1,2.26-1.15,2.7,2.7,0,0,1,2.83,3v5.4h-1.23V57.22a1.75,1.75,0,0,0-1.82-1.91,1.89,1.89,0,0,0-1.94,2v5.28Z"/></g></g></svg>